<?xml version="1.0" encoding="UTF-8"?>
<svg version="1.1" xmlns="http://www.w3.org/2000/svg" width="500" height="500">
<path d="M0 0 C165 0 330 0 500 0 C500 165 500 330 500 500 C335 500 170 500 0 500 C0 335 0 170 0 0 Z " fill="#E976A6" transform="translate(0,0)"/>
<path d="M0 0 C165 0 330 0 500 0 C500 165 500 330 500 500 C335 500 170 500 0 500 C0 335 0 170 0 0 Z M60 60 C60 185.4 60 310.8 60 440 C185.4 440 310.8 440 440 440 C440 314.6 440 189.2 440 60 C314.6 60 189.2 60 60 60 Z " fill="#FEFEFE" transform="translate(0,0)"/>
<path d="M0 0 C1.85044922 -0.01836914 1.85044922 -0.01836914 3.73828125 -0.03710938 C39.7454502 -0.09390302 74.26145734 14.81000338 100.45703125 39.08984375 C102.47914125 40.93971269 104.55853312 42.6519619 106.6875 44.375 C130.89126662 65.60808299 148.51864918 104.41172212 150.75 136.1875 C152.24855385 168.38578547 146.58480573 196.87473173 130.75 225.1875 C130.26144531 226.08855469 129.77289063 226.98960937 129.26953125 227.91796875 C123.01566508 238.93668534 114.91281386 248.50306598 105.75 257.1875 C104.5434375 258.425 104.5434375 258.425 103.3125 259.6875 C102.466875 260.5125 101.62125 261.3375 100.75 262.1875 C100.10289062 262.83074219 99.45578125 263.47398437 98.7890625 264.13671875 C70.63577918 290.93378078 31.47320987 300.86065098 -6.35546875 300.40234375 C-39.15812107 299.54430524 -71.53641821 285.3841186 -96.25 264.1875 C-97.65572266 262.99253906 -97.65572266 262.99253906 -99.08984375 261.7734375 C-104.25962851 257.24890407 -108.92760172 252.5236804 -113.25 247.1875 C-114.00925781 246.26582031 -114.76851562 245.34414063 -115.55078125 244.39453125 C-141.92838569 211.69794199 -152.01535457 172.57390081 -149.25 131.1875 C-148.35393614 123.95452411 -146.55297273 117.08881762 -144.25 110.1875 C-144.02006348 109.47400391 -143.79012695 108.76050781 -143.55322266 108.02539062 C-140.13557528 97.60555702 -135.41142245 87.84340576 -130.25 78.1875 C-129.92241699 77.57100586 -129.59483398 76.95451172 -129.25732422 76.31933594 C-110.10710393 40.61424161 -77.08373558 16.81674504 -38.72900391 4.98706055 C-25.73239284 1.15554677 -13.54153241 0.00698737 0 0 Z " fill="#E876A4" transform="translate(249.25,98.8125)"/>
<path d="M0 0 C5.424375 -0.020625 10.84875 -0.04125 16.4375 -0.0625 C18.15122803 -0.071604 19.86495605 -0.08070801 21.63061523 -0.09008789 C22.98160727 -0.09300716 24.33260019 -0.09555569 25.68359375 -0.09765625 C26.74471375 -0.1053302 26.74471375 -0.1053302 27.82727051 -0.11315918 C29.55192617 -0.11347032 31.27646838 -0.06225761 33 0 C34 1 34 1 34.12025452 3.36012268 C34.11803391 4.40603073 34.11581329 5.45193878 34.11352539 6.52954102 C34.11344986 7.71068985 34.11337433 8.89183868 34.11329651 10.10877991 C34.10813522 11.3941716 34.10297394 12.67956329 34.09765625 14.00390625 C34.09553383 15.9661338 34.09553383 15.9661338 34.09336853 17.96800232 C34.0895441 21.45162859 34.07971446 24.93521339 34.06866455 28.41882324 C34.05844882 31.97126698 34.05381586 35.52371759 34.04882812 39.07617188 C34.03862232 46.05081791 34.01905064 53.02534997 34 60 C52.15 60 70.3 60 89 60 C89 65.28 89 70.56 89 76 C111.44 76 133.88 76 157 76 C157 78.97 157 81.94 157 85 C134.56 85 112.12 85 89 85 C89 88.3 89 91.6 89 95 C70.85 95 52.7 95 34 95 C34 120.41 34 145.82 34 172 C22.78 172 11.56 172 0 172 C0 146.59 0 121.18 0 95 C-18.15 95 -36.3 95 -55 95 C-55.495 90.545 -55.495 90.545 -56 86 C-89.165 85.505 -89.165 85.505 -123 85 C-123 82.03 -123 79.06 -123 76 C-100.56 76 -78.12 76 -55 76 C-55 70.72 -55 65.44 -55 60 C-36.85 60 -18.7 60 0 60 C0 40.2 0 20.4 0 0 Z " fill="#E772A3" transform="translate(233,166)"/>
<path d="M0 0 C2.17386861 0.01071711 4.34690816 0.00003297 6.52075195 -0.01269531 C20.07565122 -0.02896919 33.02109411 1.45208716 46.05395508 5.38574219 C47.07803467 5.69141113 48.10211426 5.99708008 49.15722656 6.31201172 C75.28672634 14.35969391 96.6024236 28.53451076 116.24145508 47.26074219 C117.03293945 47.999375 117.82442383 48.73800781 118.63989258 49.49902344 C146.71830012 76.4444426 163.3715082 117.2320382 164.52270508 155.81152344 C164.98236487 178.22986603 161.63275477 197.12873443 154.24145508 218.26074219 C153.8641626 219.3406543 153.8641626 219.3406543 153.47924805 220.44238281 C146.03287353 241.30246703 133.47649578 259.32167927 118.24145508 275.26074219 C117.27272461 276.32421875 117.27272461 276.32421875 116.28442383 277.40917969 C104.88784995 289.48126751 90.96451435 298.76652187 76.24145508 306.26074219 C75.63124512 306.57736816 75.02103516 306.89399414 74.39233398 307.22021484 C38.16388676 325.84504073 -5.12387304 328.75109941 -43.86987305 316.58544922 C-68.23168947 308.60904444 -90.42741481 295.16181647 -108.75854492 277.26074219 C-109.53456055 276.54660156 -110.31057617 275.83246094 -111.11010742 275.09667969 C-122.46012157 264.38836245 -130.63942427 251.02598662 -137.75854492 237.26074219 C-138.07275391 236.6582666 -138.38696289 236.05579102 -138.71069336 235.43505859 C-155.89111809 202.01849075 -163.10920652 162.92578503 -153.75854492 126.26074219 C-153.4856665 125.16536133 -153.4856665 125.16536133 -153.20727539 124.04785156 C-145.96122169 95.58167455 -132.09263334 70.34367805 -111.75854492 49.26074219 C-110.9309668 48.35839844 -110.10338867 47.45605469 -109.25073242 46.52636719 C-90.4795667 26.66452212 -64.44290331 12.8592413 -38.50854492 4.88574219 C-37.741875 4.64702393 -36.97520508 4.40830566 -36.18530273 4.16235352 C-24.29677851 0.69925096 -12.30148981 -0.07181739 0 0 Z M-40.25854492 11.01074219 C-41.04769287 11.26678223 -41.83684082 11.52282227 -42.64990234 11.78662109 C-70.60742333 21.09550766 -93.25955582 37.3356771 -113.75854492 58.26074219 C-114.75741178 59.26187405 -115.7570147 60.26227475 -116.75854492 61.26074219 C-116.42854492 59.94074219 -116.09854492 58.62074219 -115.75854492 57.26074219 C-120.37754379 60.80197465 -123.51284441 64.308721 -126.63354492 69.19824219 C-127.06135254 69.85864502 -127.48916016 70.51904785 -127.92993164 71.19946289 C-129.22097489 73.21092651 -130.49232435 75.23358142 -131.75854492 77.26074219 C-132.12270508 77.83501953 -132.48686523 78.40929687 -132.86206055 79.00097656 C-153.23764937 111.42540699 -161.11626889 151.91045265 -152.95092773 189.32617188 C-152.25369323 192.31391211 -151.51805429 195.28826661 -150.75854492 198.26074219 C-150.53392578 199.15374023 -150.30930664 200.04673828 -150.07788086 200.96679688 C-141.67894567 233.49891701 -122.18675213 270.93751883 -92.75854492 289.26074219 C-91.76854492 288.93074219 -90.77854492 288.60074219 -89.75854492 288.26074219 C-90.63897461 287.5246875 -91.5194043 286.78863281 -92.42651367 286.03027344 C-93.59979336 285.0447185 -94.77296469 284.05903453 -95.94604492 283.07324219 C-96.52418945 282.59048828 -97.10233398 282.10773438 -97.69799805 281.61035156 C-101.22536775 278.64098385 -104.53519988 275.56429488 -107.75854492 272.26074219 C-108.5692041 271.48947998 -108.5692041 271.48947998 -109.39624023 270.70263672 C-113.94636597 266.3292514 -117.61244462 261.63254726 -121.19604492 256.44824219 C-121.73680664 255.68576172 -122.27756836 254.92328125 -122.8347168 254.13769531 C-126.75854492 248.52726597 -126.75854492 248.52726597 -126.75854492 246.26074219 C-126.26225586 246.95039063 -125.7659668 247.64003906 -125.25463867 248.35058594 C-120.87029334 254.41545832 -116.41105593 260.39903896 -111.75854492 266.26074219 C-110.95416992 267.29199219 -110.14979492 268.32324219 -109.32104492 269.38574219 C-83.84055195 297.97361235 -43.53766262 315.87004317 -5.85327148 318.46044922 C31.90887446 320.0488253 68.307493 308.20440798 98.24145508 285.26074219 C99.25594727 284.4834375 100.27043945 283.70613281 101.31567383 282.90527344 C106.2363293 279.00499946 110.58984539 275.033861 114.58520508 270.19042969 C116.25744368 268.24211396 118.04252967 266.56277381 119.92895508 264.82324219 C139.23550917 245.70413037 150.45666525 218.16463818 156.36645508 192.13574219 C156.53749756 191.38301025 156.70854004 190.63027832 156.88476562 189.85473633 C160.96309453 171.30189944 161.22233143 150.62371552 156.24145508 132.26074219 C155.95141602 130.978125 155.66137695 129.69550781 155.36254883 128.37402344 C149.224607 101.27189206 136.19262211 77.51773168 117.24145508 57.26074219 C115.76135754 55.57405859 114.28219812 53.88655134 112.80395508 52.19824219 C94.02576798 31.48415951 68.51466045 16.742338 41.61645508 9.51074219 C40.87741943 9.3119043 40.13838379 9.11306641 39.37695312 8.90820312 C27.8541186 5.97562099 16.46954916 4.90923278 4.61328125 4.94506836 C2.44129938 4.94822425 0.2706916 4.92467628 -1.90112305 4.89941406 C-15.1095827 4.83877087 -27.68620639 6.8641963 -40.25854492 11.01074219 Z " fill="#ED89B5" transform="translate(246.758544921875,87.7392578125)"/>
<path d="M0 0 C6.93 0 13.86 0 21 0 C21 18.48 21 36.96 21 56 C14.4 56 7.8 56 1 56 C1 57.98 1 59.96 1 62 C0 63 0 63 -2.13233948 63.12025452 C-3.07165817 63.11803391 -4.01097687 63.11581329 -4.97875977 63.11352539 C-6.03978409 63.11344986 -7.10080841 63.11337433 -8.19398499 63.11329651 C-9.92520851 63.10555458 -9.92520851 63.10555458 -11.69140625 63.09765625 C-12.86638168 63.0962413 -14.04135712 63.09482635 -15.25193787 63.09336853 C-19.02215064 63.08774992 -22.79230504 63.07519426 -26.5625 63.0625 C-29.11132727 63.0574874 -31.66015547 63.05292408 -34.20898438 63.04882812 C-40.4726789 63.03777444 -46.73632954 63.02049734 -53 63 C-53 68.94 -53 74.88 -53 81 C-35.18 81 -17.36 81 1 81 C1 83.97 1 86.94 1 90 C7.6 90 14.2 90 21 90 C21 113.1 21 136.2 21 160 C14.07 160 7.14 160 0 160 C0 134.92 0 109.84 0 84 C-18.48 84 -36.96 84 -56 84 C-56 76.08 -56 68.16 -56 60 C-37.52 60 -19.04 60 0 60 C0 40.2 0 20.4 0 0 Z " fill="#FDF9F6" transform="translate(239,172)"/>
<path d="M0 0 C5.424375 -0.020625 10.84875 -0.04125 16.4375 -0.0625 C18.15122803 -0.071604 19.86495605 -0.08070801 21.63061523 -0.09008789 C22.98160727 -0.09300716 24.33260019 -0.09555569 25.68359375 -0.09765625 C26.74471375 -0.1053302 26.74471375 -0.1053302 27.82727051 -0.11315918 C29.55192617 -0.11347032 31.27646838 -0.06225761 33 0 C34 1 34 1 34.12025452 3.36012268 C34.11803391 4.40603073 34.11581329 5.45193878 34.11352539 6.52954102 C34.11344986 7.71068985 34.11337433 8.89183868 34.11329651 10.10877991 C34.10813522 11.3941716 34.10297394 12.67956329 34.09765625 14.00390625 C34.09553383 15.9661338 34.09553383 15.9661338 34.09336853 17.96800232 C34.0895441 21.45162859 34.07971446 24.93521339 34.06866455 28.41882324 C34.05844882 31.97126698 34.05381586 35.52371759 34.04882812 39.07617188 C34.03862232 46.05081791 34.01905064 53.02534997 34 60 C52.15 60 70.3 60 89 60 C89 65.28 89 70.56 89 76 C111.44 76 133.88 76 157 76 C157 78.97 157 81.94 157 85 C134.56 85 112.12 85 89 85 C89 88.3 89 91.6 89 95 C70.85 95 52.7 95 34 95 C34 120.41 34 145.82 34 172 C22.78 172 11.56 172 0 172 C0 146.59 0 121.18 0 95 C-18.15 95 -36.3 95 -55 95 C-55.495 90.545 -55.495 90.545 -56 86 C-89.165 85.505 -89.165 85.505 -123 85 C-123 82.03 -123 79.06 -123 76 C-100.56 76 -78.12 76 -55 76 C-55 70.72 -55 65.44 -55 60 C-36.85 60 -18.7 60 0 60 C0 40.2 0 20.4 0 0 Z M3 3 C3 22.8 3 42.6 3 63 C-15.48 63 -33.96 63 -53 63 C-53 72.9 -53 82.8 -53 93 C-34.85 93 -16.7 93 2 93 C2 118.41 2 143.82 2 170 C11.57 170 21.14 170 31 170 C31 144.59 31 119.18 31 93 C49.48 93 67.96 93 87 93 C87 83.1 87 73.2 87 63 C68.52 63 50.04 63 31 63 C31 43.2 31 23.4 31 3 C21.76 3 12.52 3 3 3 Z " fill="#FBF3F3" transform="translate(233,166)"/>
<path d="M0 0 C1.85044922 -0.01836914 1.85044922 -0.01836914 3.73828125 -0.03710938 C39.7454502 -0.09390302 74.26145734 14.81000338 100.45703125 39.08984375 C102.47914125 40.93971269 104.55853312 42.6519619 106.6875 44.375 C130.89126662 65.60808299 148.51864918 104.41172212 150.75 136.1875 C152.24855385 168.38578547 146.58480573 196.87473173 130.75 225.1875 C130.26144531 226.08855469 129.77289063 226.98960937 129.26953125 227.91796875 C123.01566508 238.93668534 114.91281386 248.50306598 105.75 257.1875 C104.5434375 258.425 104.5434375 258.425 103.3125 259.6875 C102.466875 260.5125 101.62125 261.3375 100.75 262.1875 C100.10289062 262.83074219 99.45578125 263.47398437 98.7890625 264.13671875 C70.63577918 290.93378078 31.47320987 300.86065098 -6.35546875 300.40234375 C-39.15812107 299.54430524 -71.53641821 285.3841186 -96.25 264.1875 C-97.65572266 262.99253906 -97.65572266 262.99253906 -99.08984375 261.7734375 C-104.25962851 257.24890407 -108.92760172 252.5236804 -113.25 247.1875 C-114.00925781 246.26582031 -114.76851562 245.34414063 -115.55078125 244.39453125 C-141.92838569 211.69794199 -152.01535457 172.57390081 -149.25 131.1875 C-148.35393614 123.95452411 -146.55297273 117.08881762 -144.25 110.1875 C-144.02006348 109.47400391 -143.79012695 108.76050781 -143.55322266 108.02539062 C-140.13557528 97.60555702 -135.41142245 87.84340576 -130.25 78.1875 C-129.92241699 77.57100586 -129.59483398 76.95451172 -129.25732422 76.31933594 C-110.10710393 40.61424161 -77.08373558 16.81674504 -38.72900391 4.98706055 C-25.73239284 1.15554677 -13.54153241 0.00698737 0 0 Z M-98.69921875 40.7421875 C-101.25 43.1875 -101.25 43.1875 -103.81640625 45.19921875 C-128.43202324 65.31053343 -142.7379312 103.71519762 -147.25 134.1875 C-149.59255253 178.63920901 -136.26407194 217.72889686 -106.875 251.25 C-81.93367781 278.43181384 -45.82483969 296.58846514 -8.79003906 298.30126953 C31.64940135 299.52600687 67.6701934 287.66289081 98.75 261.1875 C99.4821875 260.5790625 100.214375 259.970625 100.96875 259.34375 C105.72014999 255.32333462 109.81430864 251.00407505 113.75 246.1875 C114.51183594 245.27484375 115.27367187 244.3621875 116.05859375 243.421875 C137.41052992 216.90683414 148.90820516 183.4052354 149.125 149.5625 C149.13893799 148.27657959 149.15287598 146.99065918 149.16723633 145.66577148 C148.99902425 111.39638426 132.39760829 75.46146959 109.75 50.1875 C109.09 50.1875 108.43 50.1875 107.75 50.1875 C107.52441406 49.630625 107.29882812 49.07375 107.06640625 48.5 C95.46947774 28.12794755 62.81149386 13.4622662 41.15087891 7.46826172 C-6.96491416 -5.1381613 -62.20334504 5.33034964 -98.69921875 40.7421875 Z " fill="#F6E8ED" transform="translate(249.25,98.8125)"/>
<path d="M0 0 C0.99 0.33 1.98 0.66 3 1 C4.82465899 1.11609359 6.65307886 1.17656529 8.48120117 1.20532227 C9.60213669 1.22526749 10.7230722 1.24521271 11.87797546 1.26576233 C13.08742325 1.28247482 14.29687103 1.29918732 15.54296875 1.31640625 C16.78170242 1.33718735 18.0204361 1.35796844 19.29670715 1.37937927 C22.58625256 1.43371797 25.87582726 1.48395951 29.16546631 1.53222656 C32.52377814 1.58250646 35.88200046 1.63815861 39.24023438 1.69335938 C45.82675159 1.80053048 52.41333584 1.90230135 59 2 C59 2.33 59 2.66 59 3 C40.52 3 22.04 3 3 3 C3 10.92 3 18.84 3 27 C21.48 27 39.96 27 59 27 C59 52.08 59 77.16 59 103 C65.93 103 72.86 103 80 103 C79.99476318 100.64238525 79.98952637 98.28477051 79.98413086 95.85571289 C79.9675947 88.08448007 79.95652867 80.3132465 79.94818783 72.54200077 C79.94295911 67.82820267 79.93586166 63.11442253 79.92456055 58.40063477 C79.91373127 53.85544596 79.90772308 49.31027448 79.90512276 44.76507378 C79.90326858 43.02705042 79.89964811 41.28902806 79.89426994 39.55101204 C79.88705897 37.12521405 79.88600908 34.69948854 79.88647461 32.27368164 C79.88287933 31.54791931 79.87928406 30.82215698 79.87557983 30.07440186 C79.88594784 25.11405216 79.88594784 25.11405216 81 24 C82.65738443 23.90653085 84.31874644 23.88255023 85.97875977 23.88647461 C87.03978409 23.88655014 88.10080841 23.88662567 89.19398499 23.88670349 C90.348134 23.89186478 91.50228302 23.89702606 92.69140625 23.90234375 C93.86638168 23.9037587 95.04135712 23.90517365 96.25193787 23.90663147 C100.02215064 23.91225008 103.79230504 23.92480574 107.5625 23.9375 C110.11132727 23.9425126 112.66015547 23.94707592 115.20898438 23.95117188 C121.4726789 23.96222556 127.73632954 23.97950266 134 24 C134 18.06 134 12.12 134 6 C116.51 6 99.02 6 81 6 C81 5.01 81 4.02 81 3 C99.48 3 117.96 3 137 3 C137 11.25 137 19.5 137 28 C137.66 28 138.32 28 139 28 C139 18.76 139 9.52 139 0 C139.33 0 139.66 0 140 0 C140 9.9 140 19.8 140 30 C121.52 30 103.04 30 84 30 C84 55.41 84 80.82 84 107 C74.43 107 64.86 107 55 107 C55 81.59 55 56.18 55 30 C36.85 30 18.7 30 0 30 C0 20.1 0 10.2 0 0 Z " fill="#E46FA5" transform="translate(180,229)"/>
<path d="M0 0 C2.17386861 0.01071711 4.34690816 0.00003297 6.52075195 -0.01269531 C20.07565122 -0.02896919 33.02109411 1.45208716 46.05395508 5.38574219 C47.07803467 5.69141113 48.10211426 5.99708008 49.15722656 6.31201172 C75.28672634 14.35969391 96.6024236 28.53451076 116.24145508 47.26074219 C117.03293945 47.999375 117.82442383 48.73800781 118.63989258 49.49902344 C146.71830012 76.4444426 163.3715082 117.2320382 164.52270508 155.81152344 C164.98236487 178.22986603 161.63275477 197.12873443 154.24145508 218.26074219 C153.8641626 219.3406543 153.8641626 219.3406543 153.47924805 220.44238281 C146.03287353 241.30246703 133.47649578 259.32167927 118.24145508 275.26074219 C117.27272461 276.32421875 117.27272461 276.32421875 116.28442383 277.40917969 C104.88784995 289.48126751 90.96451435 298.76652187 76.24145508 306.26074219 C75.63124512 306.57736816 75.02103516 306.89399414 74.39233398 307.22021484 C38.16388676 325.84504073 -5.12387304 328.75109941 -43.86987305 316.58544922 C-68.23168947 308.60904444 -90.42741481 295.16181647 -108.75854492 277.26074219 C-109.53456055 276.54660156 -110.31057617 275.83246094 -111.11010742 275.09667969 C-122.46012157 264.38836245 -130.63942427 251.02598662 -137.75854492 237.26074219 C-138.07275391 236.6582666 -138.38696289 236.05579102 -138.71069336 235.43505859 C-155.89111809 202.01849075 -163.10920652 162.92578503 -153.75854492 126.26074219 C-153.4856665 125.16536133 -153.4856665 125.16536133 -153.20727539 124.04785156 C-145.96122169 95.58167455 -132.09263334 70.34367805 -111.75854492 49.26074219 C-110.9309668 48.35839844 -110.10338867 47.45605469 -109.25073242 46.52636719 C-90.4795667 26.66452212 -64.44290331 12.8592413 -38.50854492 4.88574219 C-37.741875 4.64702393 -36.97520508 4.40830566 -36.18530273 4.16235352 C-24.29677851 0.69925096 -12.30148981 -0.07181739 0 0 Z M-107.75854492 47.26074219 C-108.50620117 47.95554688 -109.25385742 48.65035156 -110.02416992 49.36621094 C-138.09822495 76.3114141 -155.04250956 117.18249178 -156.21166992 155.87158203 C-156.41038106 170.50375938 -154.37363831 184.11242849 -150.75854492 198.26074219 C-150.53392578 199.15374023 -150.30930664 200.04673828 -150.07788086 200.96679688 C-139.42253349 242.23881923 -114.64681714 276.9070619 -78.19604492 299.01074219 C-60.15826794 309.63877122 -42.20326998 316.19265914 -21.75854492 320.26074219 C-21.0230542 320.43726318 -20.28756348 320.61378418 -19.52978516 320.7956543 C-15.88315287 321.40765628 -12.27755706 321.44294505 -8.59057617 321.46386719 C-7.79689133 321.46956726 -7.00320648 321.47526733 -6.18547058 321.48114014 C-4.50191569 321.49057037 -2.8183425 321.49711625 -1.13476562 321.50097656 C1.37576295 321.51053957 3.8854203 321.54151917 6.39575195 321.57324219 C22.56327585 321.67894158 37.85793901 319.33678453 53.24145508 314.26074219 C53.86197754 314.05610352 54.4825 313.85146484 55.12182617 313.640625 C94.1593052 300.52026656 127.41916471 271.27406089 145.765625 234.42504883 C153.0480762 219.31147906 157.8643946 203.66481345 161.24145508 187.26074219 C161.58176758 185.68679688 161.58176758 185.68679688 161.92895508 184.08105469 C165.13464477 166.93951953 163.55789388 149.24643035 160.24145508 132.26074219 C160.09691895 131.51453613 159.95238281 130.76833008 159.8034668 129.99951172 C151.16892452 86.84592448 123.82967882 50.05602521 87.67895508 25.69824219 C24.66485163 -14.60938335 -54.4412923 -3.10438067 -107.75854492 47.26074219 Z " fill="#F3DEE8" transform="translate(246.758544921875,87.7392578125)"/>
<path d="M0 0 C0.33 0 0.66 0 1 0 C1.02312737 8.06652174 1.04091709 16.13302972 1.05181217 24.19957638 C1.05704014 27.94483037 1.06413622 31.69006176 1.07543945 35.43530273 C1.08627141 39.04681687 1.09227749 42.65830921 1.09487724 46.26983833 C1.09673094 47.65060329 1.10035049 49.031367 1.10573006 50.41212273 C1.11294447 52.33975952 1.11340809 54.26741807 1.11352539 56.19506836 C1.115746 57.29427109 1.11796661 58.39347382 1.12025452 59.52598572 C1 62 1 62 0 63 C-1.65738443 63.09346915 -3.31874644 63.11744977 -4.97875977 63.11352539 C-6.03978409 63.11344986 -7.10080841 63.11337433 -8.19398499 63.11329651 C-9.92520851 63.10555458 -9.92520851 63.10555458 -11.69140625 63.09765625 C-12.86638168 63.0962413 -14.04135712 63.09482635 -15.25193787 63.09336853 C-19.02215064 63.08774992 -22.79230504 63.07519426 -26.5625 63.0625 C-29.11132727 63.0574874 -31.66015547 63.05292408 -34.20898438 63.04882812 C-40.4726789 63.03777444 -46.73632954 63.02049734 -53 63 C-53 68.94 -53 74.88 -53 81 C-35.18 81 -17.36 81 1 81 C1 83.97 1 86.94 1 90 C7.6 90 14.2 90 21 90 C21 90.33 21 90.66 21 91 C14.4 91 7.8 91 1 91 C1 113.44 1 135.88 1 159 C7.6 159 14.2 159 21 159 C21 159.33 21 159.66 21 160 C14.07 160 7.14 160 0 160 C0 134.92 0 109.84 0 84 C-18.48 84 -36.96 84 -56 84 C-56 76.08 -56 68.16 -56 60 C-37.52 60 -19.04 60 0 60 C0 40.2 0 20.4 0 0 Z " fill="#F7E6EE" transform="translate(239,172)"/>
<path d="M0 0 C0.99 0.33 1.98 0.66 3 1 C4.82465899 1.11609359 6.65307886 1.17656529 8.48120117 1.20532227 C9.60213669 1.22526749 10.7230722 1.24521271 11.87797546 1.26576233 C13.08742325 1.28247482 14.29687103 1.29918732 15.54296875 1.31640625 C16.78170242 1.33718735 18.0204361 1.35796844 19.29670715 1.37937927 C22.58625256 1.43371797 25.87582726 1.48395951 29.16546631 1.53222656 C32.52377814 1.58250646 35.88200046 1.63815861 39.24023438 1.69335938 C45.82675159 1.80053048 52.41333584 1.90230135 59 2 C59 2.33 59 2.66 59 3 C40.52 3 22.04 3 3 3 C3 10.92 3 18.84 3 27 C21.48 27 39.96 27 59 27 C59 31.29 59 35.58 59 40 C58.01 40.495 58.01 40.495 57 41 C56.67 62.78 56.34 84.56 56 107 C55.67 107 55.34 107 55 107 C55 81.59 55 56.18 55 30 C36.85 30 18.7 30 0 30 C0 20.1 0 10.2 0 0 Z " fill="#EA90BB" transform="translate(180,229)"/>
<path d="M0 0 C2.83994005 2.70382092 5.12124243 5.43983664 7.3125 8.6875 C10.22406243 12.92363589 13.26304968 17.01302847 16.453125 21.04296875 C17.64297036 22.5483034 18.79802071 24.08118935 19.9375 25.625 C43.89753804 53.21534684 84.18873359 71.18150028 120 74 C132.31926403 74.52566109 144.67658388 74.26077059 157 74 C157 74.33 157 74.66 157 75 C124.60019575 80.4981486 91.9423268 75.75487117 62.83203125 60.3203125 C60.08745502 58.86426412 60.08745502 58.86426412 57.1796875 58.6484375 C52.50359567 57.69483646 49.06886257 55.23196001 45.125 52.625 C44.34125 52.13 43.5575 51.635 42.75 51.125 C42.01007813 50.64289063 41.27015625 50.16078125 40.5078125 49.6640625 C39.83379395 49.22529785 39.15977539 48.7865332 38.46533203 48.33447266 C37.98177246 47.89409668 37.49821289 47.4537207 37 47 C37 46.01 37 45.02 37 44 C34.94846867 41.99204208 34.94846867 41.99204208 32.3125 40.0625 C31.00732422 39.05896484 31.00732422 39.05896484 29.67578125 38.03515625 C28.79277344 37.36355469 27.90976563 36.69195312 27 36 C16.17577362 27.61684545 6.6296484 14.93336713 0 3 C0 2.01 0 1.02 0 0 Z " fill="#F287B7" transform="translate(118,331)"/>
<path d="M0 0 C21.48324404 2.16497808 43.71366507 14.22289691 60 28 C61.08239833 28.88395864 62.16577947 29.76671483 63.25 30.6484375 C88.53744194 51.40875339 110.42540305 80.60863146 118 113 C118 113.99 118 114.98 118 116 C117.34 116 116.68 116 116 116 C115.54560547 114.56720703 115.54560547 114.56720703 115.08203125 113.10546875 C112.51830669 105.14219679 109.67125762 97.53186376 106 90 C105.49855469 88.91203125 104.99710937 87.8240625 104.48046875 86.703125 C86.57640796 48.96622873 51.61592563 20.13490472 13 5.6875 C8.71574976 4.17731799 4.42929598 3.00285947 0 2 C0 1.34 0 0.68 0 0 Z " fill="#E475AC" transform="translate(286,94)"/>
<path d="M0 0 C18.48 0 36.96 0 56 0 C56 7.92 56 15.84 56 24 C37.52 24 19.04 24 0 24 C0 23.01 0 22.02 0 21 C17.49 21 34.98 21 53 21 C53 15.06 53 9.12 53 3 C35.51 3 18.02 3 0 3 C0 2.01 0 1.02 0 0 Z " fill="#F7E7EE" transform="translate(261,232)"/>
<path d="M0 0 C0.66 0.33 1.32 0.66 2 1 C1.67837891 1.46672119 1.35675781 1.93344238 1.02539062 2.41430664 C-19.60233876 32.48415109 -32.12294262 63.72912481 -32.53417969 100.5612793 C-32.55383789 101.50011963 -32.57349609 102.43895996 -32.59375 103.40625 C-32.60083984 104.24478516 -32.60792969 105.08332031 -32.61523438 105.94726562 C-32.74220703 106.62466797 -32.86917969 107.30207031 -33 108 C-34.485 108.99 -34.485 108.99 -36 110 C-36.7793833 74.10040599 -29.87027941 42.29623473 -10.75 11.4375 C-10.2547583 10.63344727 -9.7595166 9.82939453 -9.24926758 9.00097656 C-6.67337176 5.00182145 -4.58251749 1.84090789 0 0 Z " fill="#ED8AB8" transform="translate(127,151)"/>
<path d="M0 0 C4.68139254 -0.02465288 9.36274759 -0.04283739 14.04418945 -0.05493164 C15.63794614 -0.05997157 17.23169819 -0.0668035 18.82543945 -0.07543945 C21.11150253 -0.08751999 23.39750467 -0.09323155 25.68359375 -0.09765625 C26.40026718 -0.10281754 27.11694061 -0.10797882 27.85533142 -0.11329651 C29.57063672 -0.11349263 31.28581266 -0.06192007 33 0 C34.74053132 1.74053132 34.1365843 4.13003003 34.14526367 6.49780273 C34.15164352 7.67249619 34.15802338 8.84718964 34.16459656 10.05747986 C34.16570938 11.33659744 34.1668222 12.61571503 34.16796875 13.93359375 C34.17296135 15.88870628 34.17296135 15.88870628 34.17805481 17.88331604 C34.184052 20.64658435 34.18589412 23.40982135 34.18530273 26.1730957 C34.18520109 29.71868473 34.19885231 33.26407357 34.21607494 36.80961514 C34.22985013 40.18427799 34.22928323 43.55890309 34.23046875 46.93359375 C34.23765427 48.2106871 34.24483978 49.48778046 34.25224304 50.80357361 C34.24916641 51.98141922 34.24608978 53.15926483 34.24291992 54.37280273 C34.24434494 55.41347397 34.24576996 56.4541452 34.24723816 57.52635193 C34 60 34 60 32 62 C50.15 62 68.3 62 87 62 C87 62.33 87 62.66 87 63 C68.52 63 50.04 63 31 63 C31 43.2 31 23.4 31 3 C21.76 3 12.52 3 3 3 C2.01 2.01 1.02 1.02 0 0 Z " fill="#F6E4ED" transform="translate(233,166)"/>
<path d="M0 0 C3.63 0 7.26 0 11 0 C11 8.58 11 17.16 11 26 C7.37 26 3.74 26 0 26 C0 17.42 0 8.84 0 0 Z " fill="#FCF7F5" transform="translate(245,354)"/>
<path d="M0 0 C17.82 0 35.64 0 54 0 C54 25.41 54 50.82 54 77 C55.32 77 56.64 77 58 77 C58 77.66 58 78.32 58 79 C56.02 79 54.04 79 52 79 C52 53.59 52 28.18 52 2 C34.51 2 17.02 2 -1 2 C-0.67 1.34 -0.34 0.68 0 0 Z " fill="#FCFBFA" transform="translate(181,259)"/>
<path d="M0 0 C10.23 0 20.46 0 31 0 C31 0.33 31 0.66 31 1 C21.76 1.33 12.52 1.66 3 2 C2.67 21.47 2.34 40.94 2 61 C-16.15 61 -34.3 61 -53 61 C-53.33 60.34 -53.66 59.68 -54 59 C-36.18 59 -18.36 59 0 59 C0 39.53 0 20.06 0 0 Z " fill="#FBF9F8" transform="translate(233,167)"/>
<path d="M0 0 C1.49275186 2.98550372 1.04535206 5.99731315 0.94921875 9.26171875 C0.9303511 10.00339798 0.91148346 10.74507721 0.89204407 11.50923157 C0.85004026 13.09566385 0.80529134 14.68202539 0.75805664 16.26831055 C0.68990102 18.60517559 0.63425799 20.94207218 0.58007812 23.27929688 C0.22469688 35.96163339 -0.89556633 48.29901284 -2 61 C16.48 61 34.96 61 54 61 C54 61.33 54 61.66 54 62 C35.52 62 17.04 62 -2 62 C-2.33 62.66 -2.66 63.32 -3 64 C-3 62.35 -3 60.7 -3 59 C-9.6 59 -16.2 59 -23 59 C-23 58.67 -23 58.34 -23 58 C-16.4 58 -9.8 58 -3 58 C-3 39.52 -3 21.04 -3 2 C-9.93 2 -16.86 2 -24 2 C-24 1.67 -24 1.34 -24 1 C-21.31264212 0.83071761 -18.62515116 0.6645047 -15.9375 0.5 C-14.80924805 0.42845703 -14.80924805 0.42845703 -13.65820312 0.35546875 C-9.09508249 0.07891598 -4.57143477 -0.0485677 0 0 Z " fill="#E68CB4" transform="translate(263,170)"/>
<path d="M0 0 C4.38367895 0.62979131 8.00883157 2.30968965 11.9375 4.25 C46.0766557 20.58508655 86.97188598 22.88470659 123 11 C126.52305988 9.70882622 130.01461956 8.37164367 133.48828125 6.953125 C136 6 136 6 138 6 C138 6.66 138 7.32 138 8 C121.27125429 15.58265576 103.01518942 20.04640917 84.609375 20.23828125 C83.44164299 20.25290405 83.44164299 20.25290405 82.25032043 20.26782227 C50.24170199 20.58662328 50.24170199 20.58662328 35 16 C34.32582031 15.80744629 33.65164062 15.61489258 32.95703125 15.41650391 C21.38082229 12.0662326 10.313616 7.23613991 0 1 C0 0.67 0 0.34 0 0 Z " fill="#E574AC" transform="translate(175,389)"/>
<path d="M0 0 C3.63 0 7.26 0 11 0 C11 6.93 11 13.86 11 21 C7.37 21 3.74 21 0 21 C0 14.07 0 7.14 0 0 Z " fill="#FCF6F5" transform="translate(245,136)"/>
<path d="M0 0 C0.99 0 1.98 0 3 0 C3 21.12 3 42.24 3 64 C7.62 64 12.24 64 17 64 C16.67 64.66 16.34 65.32 16 66 C10.72 66 5.44 66 0 66 C0 44.22 0 22.44 0 0 Z " fill="#E268A5" transform="translate(236,269)"/>
<path d="M0 0 C2.88699757 2.88699757 2.93788219 6.23848919 3.5625 10.125 C3.68818359 10.85976562 3.81386719 11.59453125 3.94335938 12.3515625 C9.18100977 43.50324235 3.68090534 71.97170758 -8 101 C-8.66 101 -9.32 101 -10 101 C-8.7063879 96.53020209 -7.38538704 92.08550684 -5.828125 87.69921875 C-4.45595708 83.8241149 -3.18649561 79.9354244 -2 76 C-1.79665039 75.32904297 -1.59330078 74.65808594 -1.38378906 73.96679688 C2.10532111 61.78642214 2.37174232 49.636853 2.375 37.0625 C2.37690338 36.2671283 2.37880676 35.47175659 2.38076782 34.65228271 C2.37839382 25.88180313 2.04304412 17.44578264 0.42431641 8.79467773 C-0.02670319 5.82412464 -0.06933557 3.00001161 0 0 Z " fill="#E982B3" transform="translate(404,213)"/>
<path d="M0 0 C0.66 0.33 1.32 0.66 2 1 C1.18208984 2.22009766 1.18208984 2.22009766 0.34765625 3.46484375 C-19.99227026 34.18879006 -26.86891546 64.7652717 -30 101 C-30.33 101 -30.66 101 -31 101 C-32.00327499 64.46021042 -22.10056163 31.03062074 -1 1 C-0.67 0.67 -0.34 0.34 0 0 Z " fill="#E575A8" transform="translate(122,155)"/>
<path d="M0 0 C0.33 0 0.66 0 1 0 C1.01213028 1.24788551 1.01213028 1.24788551 1.02450562 2.52098083 C1.10270246 10.39144284 1.1900673 18.26173961 1.28752708 26.13198757 C1.33730472 30.17739422 1.38363512 34.22277708 1.421875 38.26831055 C1.45896355 42.17824602 1.50538467 46.08797295 1.55806351 49.99772835 C1.57648308 51.48348363 1.59163605 52.9692834 1.60334396 54.45510674 C1.66680075 62.23538583 2.07456161 69.4338475 4 77 C4 78.65 4 80.3 4 82 C-5.24 82 -14.48 82 -24 82 C-24 81.67 -24 81.34 -24 81 C-16.08 80.505 -16.08 80.505 -8 80 C-12.29 79.67 -16.58 79.34 -21 79 C-21 78.67 -21 78.34 -21 78 C-14.07 78 -7.14 78 0 78 C0 52.26 0 26.52 0 0 Z " fill="#E186AE" transform="translate(260,254)"/>
<path d="M0 0 C-1.59714844 0.80050781 -1.59714844 0.80050781 -3.2265625 1.6171875 C-13.12763797 6.66524452 -22.20519296 12.20934955 -31 19 C-31.96550781 19.74121094 -32.93101562 20.48242188 -33.92578125 21.24609375 C-40.79745689 26.69872464 -46.89672035 32.71866681 -53 39 C-54.33108678 40.33557611 -55.66356951 41.66977104 -57 43 C-57 38.29247383 -56.28206386 35.90370998 -52.9453125 32.546875 C-52.33042969 31.928125 -51.71554688 31.309375 -51.08203125 30.671875 C-50.43621094 30.03765625 -49.79039062 29.4034375 -49.125 28.75 C-48.48691406 28.1003125 -47.84882813 27.450625 -47.19140625 26.78125 C-46.57394531 26.16765625 -45.95648438 25.5540625 -45.3203125 24.921875 C-44.75586426 24.36081055 -44.19141602 23.79974609 -43.60986328 23.22167969 C-42 22 -42 22 -39 22 C-37.24081081 20.80055282 -35.54145502 19.51277273 -33.875 18.1875 C-28.78721927 14.23640237 -23.53492767 10.62108799 -18.125 7.125 C-17.4119873 6.6611792 -16.69897461 6.1973584 -15.96435547 5.71948242 C-4.75176212 -1.48072267 -4.75176212 -1.48072267 0 0 Z " fill="#E881B0" transform="translate(187,107)"/>
<path d="M0 0 C0.99 0.33 1.98 0.66 3 1 C4.82465899 1.11609359 6.65307886 1.17656529 8.48120117 1.20532227 C9.60213669 1.22526749 10.7230722 1.24521271 11.87797546 1.26576233 C13.08742325 1.28247482 14.29687103 1.29918732 15.54296875 1.31640625 C16.78170242 1.33718735 18.0204361 1.35796844 19.29670715 1.37937927 C22.58625256 1.43371797 25.87582726 1.48395951 29.16546631 1.53222656 C32.52377814 1.58250646 35.88200046 1.63815861 39.24023438 1.69335938 C45.82675159 1.80053048 52.41333584 1.90230135 59 2 C59 2.33 59 2.66 59 3 C40.52 3 22.04 3 3 3 C3 10.92 3 18.84 3 27 C2.34 27 1.68 27 1 27 C0.67 27.66 0.34 28.32 0 29 C0 19.43 0 9.86 0 0 Z " fill="#E688B5" transform="translate(180,229)"/>
<path d="M0 0 C0.33 0 0.66 0 1 0 C1.10957031 0.60134766 1.21914062 1.20269531 1.33203125 1.82226562 C4.95078009 21.28407342 10.4919279 39.68896437 18 58 C15 57 15 57 13.68359375 54.6015625 C13.27238281 53.61929688 12.86117187 52.63703125 12.4375 51.625 C11.11080655 48.49218493 9.89374832 45.84062248 8 43 C5.1330164 38.6995246 3.97271142 34.24069581 4.03515625 29.11328125 C3.99807684 25.82969369 3.42301011 23.16206586 2.5625 20 C0.72507639 13.18289211 -0.12129744 7.03525135 0 0 Z " fill="#E986B1" transform="translate(94,260)"/>
<path d="M0 0 C0 0.66 0 1.32 0 2 C-5.11904423 1.56963787 -10.09488607 0.98979386 -15.125 -0.0625 C-29.98682745 -2.63880644 -46.03155839 -1.34332168 -61 0 C-61 -0.66 -61 -1.32 -61 -2 C-41.18578908 -6.25948488 -19.57160386 -4.89290096 0 0 Z " fill="#E476AB" transform="translate(285,93)"/>
<path d="M0 0 C0 0.66 0 1.32 0 2 C-0.680625 2.268125 -1.36125 2.53625 -2.0625 2.8125 C-18.44043589 9.4333677 -32.63804231 17.73001538 -47 28 C-47.69722168 28.49709473 -48.39444336 28.99418945 -49.11279297 29.50634766 C-50.74296509 30.66935377 -52.3716607 31.83442911 -54 33 C-54 32.01 -54 31.02 -54 30 C-52.14224629 28.28819093 -50.33573928 26.80583647 -48.3125 25.3125 C-47.72380127 24.87115723 -47.13510254 24.42981445 -46.52856445 23.97509766 C-35.71703219 15.98991216 -24.0972034 9.76723267 -12 4 C-10.55947266 3.31164062 -10.55947266 3.31164062 -9.08984375 2.609375 C-3.43926056 0 -3.43926056 0 0 0 Z " fill="#E579AC" transform="translate(200,98)"/>
<path d="M0 0 C0.33 0 0.66 0 1 0 C1 9.9 1 19.8 1 30 C-17.48 30 -35.96 30 -55 30 C-55 29.67 -55 29.34 -55 29 C-42.13 29 -29.26 29 -16 29 C-16 28.34 -16 27.68 -16 27 C-13.70839681 26.97307516 -11.41670454 26.95363876 -9.125 26.9375 C-7.84882813 26.92589844 -6.57265625 26.91429687 -5.2578125 26.90234375 C-2 27 -2 27 0 28 C0 18.76 0 9.52 0 0 Z " fill="#EC9AC2" transform="translate(319,229)"/>
<path d="M0 0 C0.33 0 0.66 0 1 0 C2.20566417 18.38637863 -4.81862149 38.31031587 -12 55 C-12.66 55 -13.32 55 -14 55 C-12.7063879 50.53020209 -11.38538704 46.08550684 -9.828125 41.69921875 C-6.42621213 32.0919648 -4.30142605 22.47450531 -2.45947266 12.45849609 C-1.68178389 8.29732399 -0.83967934 4.14903604 0 0 Z " fill="#E475AA" transform="translate(408,259)"/>
<path d="M0 0 C0.66 0 1.32 0 2 0 C1.67 0.598125 1.34 1.19625 1 1.8125 C-0.20787988 4.05386471 -0.20787988 4.05386471 0 7 C-0.99 7.495 -0.99 7.495 -2 8 C-2.33 7.34 -2.66 6.68 -3 6 C-3.62003906 6.4846875 -4.24007813 6.969375 -4.87890625 7.46875 C-10.4003832 11.64803387 -15.95533581 15.24913903 -22.0625 18.5 C-22.71742432 18.84998047 -23.37234863 19.19996094 -24.04711914 19.56054688 C-28.72907759 22 -28.72907759 22 -31 22 C-30 19 -30 19 -27.11328125 17.30859375 C-25.84942605 16.67869427 -24.58225258 16.05542533 -23.3125 15.4375 C-15.24045573 11.34277209 -6.45545192 6.45545192 0 0 Z " fill="#EE8CB4" transform="translate(346,371)"/>
<path d="M0 0 C0.75152828 2.22693253 1.14112346 3.54821144 0.43017578 5.82421875 C0.1051709 6.43910156 -0.21983398 7.05398438 -0.5546875 7.6875 C-0.91812256 8.38101562 -1.28155762 9.07453125 -1.65600586 9.7890625 C-2.25940796 10.88347656 -2.25940796 10.88347656 -2.875 12 C-3.28049072 12.75023437 -3.68598145 13.50046875 -4.10375977 14.2734375 C-13.50386218 31.25193109 -13.50386218 31.25193109 -19 34 C-18.77693265 30.43092238 -17.65398382 28.35020605 -15.5 25.625 C-12.42652668 21.72548422 -9.85393501 17.63045021 -7.3125 13.375 C-6.93222656 12.74158691 -6.55195313 12.10817383 -6.16015625 11.45556641 C-3.93837491 7.71119988 -1.9002284 3.92110622 0 0 Z " fill="#E376AE" transform="translate(393,315)"/>
<path d="M0 0 C0.33 0.99 0.66 1.98 1 3 C-19.86726949 26.23441175 -19.86726949 26.23441175 -27 27 C-23.88147214 23.82949667 -20.69174959 20.78191345 -17.39331055 17.79980469 C-11.18389376 12.17987198 -5.45270409 6.36853294 0 0 Z " fill="#E175AE" transform="translate(372,349)"/>
<path d="M0 0 C-1.59714844 0.80050781 -1.59714844 0.80050781 -3.2265625 1.6171875 C-13.1396604 6.67306263 -22.13314152 12.29025178 -31 19 C-32.30904297 19.97259766 -32.30904297 19.97259766 -33.64453125 20.96484375 C-35.43754731 22.29940036 -37.22044874 23.64754104 -39 25 C-39 24.01 -39 23.02 -39 22 C-36.97265625 20.125 -36.97265625 20.125 -34.0625 18 C-33.53833496 17.6169873 -33.01416992 17.23397461 -32.47412109 16.83935547 C-6.3488091 -1.97838724 -6.3488091 -1.97838724 0 0 Z " fill="#ED8AB7" transform="translate(187,107)"/>
<path d="M0 0 C0.33 0.99 0.66 1.98 1 3 C-5.36814327 8.04775072 -11.88998115 12.21064448 -19.0625 16 C-19.81265381 16.39759521 -20.56280762 16.79519043 -21.33569336 17.20483398 C-26.72826293 20 -26.72826293 20 -29 20 C-27.72016252 16.16048756 -25.90567924 15.69032789 -22.42358398 13.94116211 C-21.66505127 13.56870361 -20.90651855 13.19624512 -20.125 12.8125 C-12.85805501 9.12435145 -6.40112423 5.07389329 0 0 Z " fill="#E274AD" transform="translate(343,376)"/>
<path d="M0 0 C1.31157516 2.62315032 0.89649988 4.23033436 0.5625 7.125 C0.46066406 8.03507813 0.35882813 8.94515625 0.25390625 9.8828125 C0.17011719 10.58148438 0.08632813 11.28015625 0 12 C-0.66 11.34 -1.32 10.68 -2 10 C-2 7.36 -2 4.72 -2 2 C-9.26 2 -16.52 2 -24 2 C-24 1.67 -24 1.34 -24 1 C-21.31264212 0.83071761 -18.62515116 0.6645047 -15.9375 0.5 C-14.80924805 0.42845703 -14.80924805 0.42845703 -13.65820312 0.35546875 C-9.09508249 0.07891598 -4.57143477 -0.0485677 0 0 Z " fill="#E47BAB" transform="translate(263,170)"/>
<path d="M0 0 C5.15171623 -0.09038099 9.91913204 0.15318867 15 1 C15 1.66 15 2.32 15 3 C17.31 3 19.62 3 22 3 C22 3.33 22 3.66 22 4 C19.2705414 3.85856168 16.54151877 3.71200471 13.8125 3.5625 C13.04357422 3.52318359 12.27464844 3.48386719 11.48242188 3.44335938 C7.56748925 3.22492966 3.82879312 2.91307892 0 2 C0 1.34 0 0.68 0 0 Z " fill="#F4DDE9" transform="translate(223,395)"/>
<path d="M0 0 C0.73605469 0.47050781 1.47210938 0.94101562 2.23046875 1.42578125 C3.20628906 2.04839844 4.18210938 2.67101562 5.1875 3.3125 C6.15042969 3.92738281 7.11335937 4.54226563 8.10546875 5.17578125 C10.71634303 6.82123103 13.3469602 8.42369665 16 10 C15.01 10.33 14.02 10.66 13 11 C10.49026115 9.60050651 8.17830602 8.17371593 5.8125 6.5625 C5.15830078 6.12873047 4.50410156 5.69496094 3.83007812 5.24804688 C2.21391967 4.17454017 0.60613901 3.0884403 -1 2 C-0.67 1.34 -0.34 0.68 0 0 Z " fill="#E778AD" transform="translate(158,377)"/>
<path d="M0 0 C-1.5056807 3.83264178 -3.76831262 5.537762 -7 8 C-8.35147138 9.31494512 -9.69112542 10.64264858 -11 12 C-11.33 11.34 -11.66 10.68 -12 10 C-10.90033225 8.70450101 -9.79508199 7.41373929 -8.6875 6.125 C-8.07261719 5.40570313 -7.45773438 4.68640625 -6.82421875 3.9453125 C-3.12449799 0 -3.12449799 0 0 0 Z " fill="#F4DFE6" transform="translate(151,138)"/>
<path d="M0 0 C0.66 0 1.32 0 2 0 C5.62870159 10.37357631 5.62870159 10.37357631 4 16 C3.67 16 3.34 16 3 16 C2.49411853 14.08487728 1.99551609 12.16783078 1.5 10.25 C1.2215625 9.18265625 0.943125 8.1153125 0.65625 7.015625 C0 4 0 4 0 0 Z " fill="#F5E4EA" transform="translate(392,207)"/>
<path d="M0 0 C2 3 2 3 1.86328125 5.0078125 C1.68152344 5.70648438 1.49976563 6.40515625 1.3125 7.125 C1.14363281 7.82882812 0.97476562 8.53265625 0.80078125 9.2578125 C0.53652344 9.83273437 0.27226562 10.40765625 0 11 C-0.99 11.33 -1.98 11.66 -3 12 C-2.01 8.04 -1.02 4.08 0 0 Z " fill="#F3E0E8" transform="translate(393,283)"/>
<path d="M0 0 C0.33 0 0.66 0 1 0 C1.22226864 1.76913824 1.42733873 3.54044371 1.625 5.3125 C1.74101563 6.29863281 1.85703125 7.28476562 1.9765625 8.30078125 C2 11 2 11 0 14 C-1.33257403 4.58997722 -1.33257403 4.58997722 0 0 Z " fill="#F3DAE4" transform="translate(103,267)"/>
<path d="M0 0 C-2.91708924 1.98362069 -4.12380904 1.9876191 -7.75 1.625 C-8.8225 1.41875 -9.895 1.2125 -11 1 C-7.2297564 -1.56376565 -4.32597804 -0.83191885 0 0 Z " fill="#F4D3E1" transform="translate(224,103)"/>
<path d="M0 0 C3 1 3 1 4.75 3.375 C6 6 6 6 5 9 C4.16396622 7.68921847 3.3312426 6.37632511 2.5 5.0625 C2.0359375 4.33160156 1.571875 3.60070312 1.09375 2.84765625 C0 1 0 1 0 0 Z " fill="#DD6BA5" transform="translate(382,164)"/>
<path d="M0 0 C2.78637633 4.1795645 1.79562512 6.14668677 1 11 C-1.78637633 6.8204355 -0.79562512 4.85331323 0 0 Z " fill="#F5E1E8" transform="translate(103,216)"/>
</svg>
